solid BikeWheelEnclosure
  facet normal 0.000000 0.000000 1.000000
    outer loop
      vertex 0.000000 0.000000 0.000000
      vertex 82.000000 0.000000 0.000000
      vertex 82.000000 56.000000 0.000000
    endloop
  endfacet
  facet normal 0.000000 0.000000 1.000000
    outer loop
      vertex 0.000000 0.000000 0.000000
      vertex 82.000000 56.000000 0.000000
      vertex 0.000000 56.000000 0.000000
    endloop
  endfacet
  facet normal 0.000000 -1.000000 0.000000
    outer loop
      vertex 0.000000 0.000000 0.000000
      vertex 10.000000 0.000000 0.000000
      vertex 10.000000 0.000000 32.000000
    endloop
  endfacet
  facet normal 0.000000 -1.000000 0.000000
    outer loop
      vertex 0.000000 0.000000 0.000000
      vertex 10.000000 0.000000 32.000000
      vertex 0.000000 0.000000 32.000000
    endloop
  endfacet
  facet normal 0.000000 -1.000000 0.000000
    outer loop
      vertex 50.000000 0.000000 0.000000
      vertex 82.000000 0.000000 0.000000
      vertex 82.000000 0.000000 32.000000
    endloop
  endfacet
  facet normal 0.000000 -1.000000 0.000000
    outer loop
      vertex 50.000000 0.000000 0.000000
      vertex 82.000000 0.000000 32.000000
      vertex 50.000000 0.000000 32.000000
    endloop
  endfacet
  facet normal 0.000000 -1.000000 0.000000
    outer loop
      vertex 10.000000 0.000000 0.000000
      vertex 50.000000 0.000000 0.000000
      vertex 50.000000 0.000000 22.000000
    endloop
  endfacet
  facet normal 0.000000 -1.000000 0.000000
    outer loop
      vertex 10.000000 0.000000 0.000000
      vertex 50.000000 0.000000 22.000000
      vertex 10.000000 0.000000 22.000000
    endloop
  endfacet
  facet normal 0.000000 0.000000 1.000000
    outer loop
      vertex 10.000000 0.000000 22.000000
      vertex 50.000000 0.000000 22.000000
      vertex 50.000000 2.500000 22.000000
    endloop
  endfacet
  facet normal 0.000000 0.000000 1.000000
    outer loop
      vertex 10.000000 0.000000 22.000000
      vertex 50.000000 2.500000 22.000000
      vertex 10.000000 2.500000 22.000000
    endloop
  endfacet
  facet normal 0.000000 -1.000000 0.000000
    outer loop
      vertex 0.000000 56.000000 0.000000
      vertex 33.500000 56.000000 0.000000
      vertex 33.500000 56.000000 11.000000
    endloop
  endfacet
  facet normal 0.000000 -1.000000 0.000000
    outer loop
      vertex 0.000000 56.000000 0.000000
      vertex 33.500000 56.000000 11.000000
      vertex 0.000000 56.000000 11.000000
    endloop
  endfacet
  facet normal 0.000000 -1.000000 0.000000
    outer loop
      vertex 48.500000 56.000000 0.000000
      vertex 82.000000 56.000000 0.000000
      vertex 82.000000 56.000000 11.000000
    endloop
  endfacet
  facet normal 0.000000 -1.000000 0.000000
    outer loop
      vertex 48.500000 56.000000 0.000000
      vertex 82.000000 56.000000 11.000000
      vertex 48.500000 56.000000 11.000000
    endloop
  endfacet
  facet normal 0.000000 -1.000000 0.000000
    outer loop
      vertex 0.000000 56.000000 21.000000
      vertex 33.500000 56.000000 21.000000
      vertex 33.500000 56.000000 32.000000
    endloop
  endfacet
  facet normal 0.000000 -1.000000 0.000000
    outer loop
      vertex 0.000000 56.000000 21.000000
      vertex 33.500000 56.000000 32.000000
      vertex 0.000000 56.000000 32.000000
    endloop
  endfacet
  facet normal 0.000000 -1.000000 0.000000
    outer loop
      vertex 48.500000 56.000000 21.000000
      vertex 82.000000 56.000000 21.000000
      vertex 82.000000 56.000000 32.000000
    endloop
  endfacet
  facet normal 0.000000 -1.000000 0.000000
    outer loop
      vertex 48.500000 56.000000 21.000000
      vertex 82.000000 56.000000 32.000000
      vertex 48.500000 56.000000 32.000000
    endloop
  endfacet
  facet normal 0.000000 -1.000000 0.000000
    outer loop
      vertex 33.500000 56.000000 0.000000
      vertex 48.500000 56.000000 0.000000
      vertex 48.500000 56.000000 11.000000
    endloop
  endfacet
  facet normal 0.000000 -1.000000 0.000000
    outer loop
      vertex 33.500000 56.000000 0.000000
      vertex 48.500000 56.000000 11.000000
      vertex 33.500000 56.000000 11.000000
    endloop
  endfacet
  facet normal 0.000000 -1.000000 0.000000
    outer loop
      vertex 33.500000 56.000000 21.000000
      vertex 48.500000 56.000000 21.000000
      vertex 48.500000 56.000000 32.000000
    endloop
  endfacet
  facet normal 0.000000 -1.000000 0.000000
    outer loop
      vertex 33.500000 56.000000 21.000000
      vertex 48.500000 56.000000 32.000000
      vertex 33.500000 56.000000 32.000000
    endloop
  endfacet
  facet normal -1.000000 0.000000 0.000000
    outer loop
      vertex 33.500000 56.000000 11.000000
      vertex 33.500000 53.500000 11.000000
      vertex 33.500000 53.500000 21.000000
    endloop
  endfacet
  facet normal -1.000000 0.000000 0.000000
    outer loop
      vertex 33.500000 56.000000 11.000000
      vertex 33.500000 53.500000 21.000000
      vertex 33.500000 56.000000 21.000000
    endloop
  endfacet
  facet normal 1.000000 0.000000 0.000000
    outer loop
      vertex 48.500000 53.500000 11.000000
      vertex 48.500000 56.000000 11.000000
      vertex 48.500000 56.000000 21.000000
    endloop
  endfacet
  facet normal 1.000000 0.000000 0.000000
    outer loop
      vertex 48.500000 53.500000 11.000000
      vertex 48.500000 56.000000 21.000000
      vertex 48.500000 53.500000 21.000000
    endloop
  endfacet
  facet normal 0.000000 -1.000000 0.000000
    outer loop
      vertex 33.500000 53.500000 11.000000
      vertex 48.500000 53.500000 11.000000
      vertex 48.500000 53.500000 21.000000
    endloop
  endfacet
  facet normal 0.000000 -1.000000 0.000000
    outer loop
      vertex 33.500000 53.500000 11.000000
      vertex 48.500000 53.500000 21.000000
      vertex 33.500000 53.500000 21.000000
    endloop
  endfacet
  facet normal 0.000000 0.000000 1.000000
    outer loop
      vertex 33.500000 56.000000 21.000000
      vertex 33.500000 53.500000 21.000000
      vertex 48.500000 53.500000 21.000000
    endloop
  endfacet
  facet normal -0.000000 0.000000 1.000000
    outer loop
      vertex 33.500000 56.000000 21.000000
      vertex 48.500000 53.500000 21.000000
      vertex 48.500000 56.000000 21.000000
    endloop
  endfacet
  facet normal 0.000000 0.000000 -1.000000
    outer loop
      vertex 33.500000 53.500000 11.000000
      vertex 33.500000 56.000000 11.000000
      vertex 48.500000 56.000000 11.000000
    endloop
  endfacet
  facet normal 0.000000 0.000000 -1.000000
    outer loop
      vertex 33.500000 53.500000 11.000000
      vertex 48.500000 56.000000 11.000000
      vertex 48.500000 53.500000 11.000000
    endloop
  endfacet
  facet normal -1.000000 0.000000 0.000000
    outer loop
      vertex 0.000000 56.000000 0.000000
      vertex 0.000000 0.000000 0.000000
      vertex 0.000000 0.000000 13.000000
    endloop
  endfacet
  facet normal -1.000000 0.000000 0.000000
    outer loop
      vertex 0.000000 56.000000 0.000000
      vertex 0.000000 0.000000 13.000000
      vertex 0.000000 56.000000 13.000000
    endloop
  endfacet
  facet normal -1.000000 0.000000 0.000000
    outer loop
      vertex 0.000000 56.000000 19.000000
      vertex 0.000000 0.000000 19.000000
      vertex 0.000000 0.000000 32.000000
    endloop
  endfacet
  facet normal -1.000000 0.000000 0.000000
    outer loop
      vertex 0.000000 56.000000 19.000000
      vertex 0.000000 0.000000 32.000000
      vertex 0.000000 56.000000 32.000000
    endloop
  endfacet
  facet normal -1.000000 0.000000 0.000000
    outer loop
      vertex 0.000000 0.000000 13.000000
      vertex 0.000000 0.000000 19.000000
      vertex 0.000000 5.000000 16.000000
    endloop
  endfacet
  facet normal -1.000000 0.000000 0.000000
    outer loop
      vertex 0.000000 0.000000 13.000000
      vertex 0.000000 5.000000 16.000000
      vertex 0.000000 56.000000 13.000000
    endloop
  endfacet
  facet normal -1.000000 0.000000 0.000000
    outer loop
      vertex 0.000000 56.000000 13.000000
      vertex 0.000000 5.000000 16.000000
      vertex 0.000000 0.000000 19.000000
    endloop
  endfacet
  facet normal -1.000000 0.000000 0.000000
    outer loop
      vertex 0.000000 56.000000 13.000000
      vertex 0.000000 0.000000 19.000000
      vertex 0.000000 56.000000 19.000000
    endloop
  endfacet
  facet normal 0.000000 0.000000 0.000000
    outer loop
      vertex 0.000000 5.000000 13.000000
      vertex 0.000000 5.000000 19.000000
      vertex 0.000000 5.000000 16.000000
    endloop
  endfacet
  facet normal 0.000000 0.000000 0.000000
    outer loop
      vertex 0.000000 5.000000 13.000000
      vertex 0.000000 5.000000 16.000000
      vertex 0.000000 5.000000 16.000000
    endloop
  endfacet
  facet normal 1.000000 0.000000 0.000000
    outer loop
      vertex 82.000000 0.000000 0.000000
      vertex 82.000000 15.000000 0.000000
      vertex 82.000000 15.000000 32.000000
    endloop
  endfacet
  facet normal 1.000000 0.000000 0.000000
    outer loop
      vertex 82.000000 0.000000 0.000000
      vertex 82.000000 15.000000 32.000000
      vertex 82.000000 0.000000 32.000000
    endloop
  endfacet
  facet normal 1.000000 0.000000 0.000000
    outer loop
      vertex 82.000000 35.000000 0.000000
      vertex 82.000000 56.000000 0.000000
      vertex 82.000000 56.000000 32.000000
    endloop
  endfacet
  facet normal 1.000000 0.000000 0.000000
    outer loop
      vertex 82.000000 35.000000 0.000000
      vertex 82.000000 56.000000 32.000000
      vertex 82.000000 35.000000 32.000000
    endloop
  endfacet
  facet normal 1.000000 0.000000 0.000000
    outer loop
      vertex 82.000000 15.000000 0.000000
      vertex 82.000000 35.000000 0.000000
      vertex 82.000000 35.000000 5.000000
    endloop
  endfacet
  facet normal 1.000000 0.000000 0.000000
    outer loop
      vertex 82.000000 15.000000 0.000000
      vertex 82.000000 35.000000 5.000000
      vertex 82.000000 15.000000 5.000000
    endloop
  endfacet
  facet normal 1.000000 0.000000 0.000000
    outer loop
      vertex 82.000000 15.000000 18.000000
      vertex 82.000000 35.000000 18.000000
      vertex 82.000000 35.000000 32.000000
    endloop
  endfacet
  facet normal 1.000000 0.000000 0.000000
    outer loop
      vertex 82.000000 15.000000 18.000000
      vertex 82.000000 35.000000 32.000000
      vertex 82.000000 15.000000 32.000000
    endloop
  endfacet
  facet normal 0.000000 -1.000000 0.000000
    outer loop
      vertex 79.500000 15.000000 5.000000
      vertex 82.000000 15.000000 5.000000
      vertex 82.000000 15.000000 18.000000
    endloop
  endfacet
  facet normal 0.000000 -1.000000 0.000000
    outer loop
      vertex 79.500000 15.000000 5.000000
      vertex 82.000000 15.000000 18.000000
      vertex 79.500000 15.000000 18.000000
    endloop
  endfacet
  facet normal 0.000000 1.000000 0.000000
    outer loop
      vertex 82.000000 35.000000 5.000000
      vertex 79.500000 35.000000 5.000000
      vertex 79.500000 35.000000 18.000000
    endloop
  endfacet
  facet normal 0.000000 1.000000 -0.000000
    outer loop
      vertex 82.000000 35.000000 5.000000
      vertex 79.500000 35.000000 18.000000
      vertex 82.000000 35.000000 18.000000
    endloop
  endfacet
  facet normal 1.000000 0.000000 0.000000
    outer loop
      vertex 79.500000 15.000000 5.000000
      vertex 79.500000 35.000000 5.000000
      vertex 79.500000 35.000000 18.000000
    endloop
  endfacet
  facet normal 1.000000 0.000000 0.000000
    outer loop
      vertex 79.500000 15.000000 5.000000
      vertex 79.500000 35.000000 18.000000
      vertex 79.500000 15.000000 18.000000
    endloop
  endfacet
  facet normal 1.000000 0.000000 0.000000
    outer loop
      vertex 82.000000 0.000000 0.000000
      vertex 82.000000 56.000000 0.000000
      vertex 82.000000 56.000000 13.000000
    endloop
  endfacet
  facet normal 1.000000 0.000000 0.000000
    outer loop
      vertex 82.000000 0.000000 0.000000
      vertex 82.000000 56.000000 13.000000
      vertex 82.000000 0.000000 13.000000
    endloop
  endfacet
  facet normal 0.000000 0.000000 1.000000
    outer loop
      vertex 0.000000 0.000000 32.000000
      vertex 82.000000 0.000000 32.000000
      vertex 82.000000 2.500000 32.000000
    endloop
  endfacet
  facet normal 0.000000 0.000000 1.000000
    outer loop
      vertex 0.000000 0.000000 32.000000
      vertex 82.000000 2.500000 32.000000
      vertex 0.000000 2.500000 32.000000
    endloop
  endfacet
  facet normal 0.000000 0.000000 1.000000
    outer loop
      vertex 0.000000 53.500000 32.000000
      vertex 82.000000 53.500000 32.000000
      vertex 82.000000 56.000000 32.000000
    endloop
  endfacet
  facet normal 0.000000 0.000000 1.000000
    outer loop
      vertex 0.000000 53.500000 32.000000
      vertex 82.000000 56.000000 32.000000
      vertex 0.000000 56.000000 32.000000
    endloop
  endfacet
  facet normal 0.000000 0.000000 1.000000
    outer loop
      vertex 0.000000 2.500000 32.000000
      vertex 2.500000 2.500000 32.000000
      vertex 2.500000 53.500000 32.000000
    endloop
  endfacet
  facet normal 0.000000 0.000000 1.000000
    outer loop
      vertex 0.000000 2.500000 32.000000
      vertex 2.500000 53.500000 32.000000
      vertex 0.000000 53.500000 32.000000
    endloop
  endfacet
  facet normal 0.000000 0.000000 1.000000
    outer loop
      vertex 79.500000 2.500000 32.000000
      vertex 82.000000 2.500000 32.000000
      vertex 82.000000 53.500000 32.000000
    endloop
  endfacet
  facet normal 0.000000 0.000000 1.000000
    outer loop
      vertex 79.500000 2.500000 32.000000
      vertex 82.000000 53.500000 32.000000
      vertex 79.500000 53.500000 32.000000
    endloop
  endfacet
  facet normal 0.000000 -1.000000 0.000000
    outer loop
      vertex 2.500000 2.500000 0.000000
      vertex 79.500000 2.500000 0.000000
      vertex 79.500000 2.500000 32.000000
    endloop
  endfacet
  facet normal 0.000000 -1.000000 0.000000
    outer loop
      vertex 2.500000 2.500000 0.000000
      vertex 79.500000 2.500000 32.000000
      vertex 2.500000 2.500000 32.000000
    endloop
  endfacet
  facet normal 0.000000 1.000000 0.000000
    outer loop
      vertex 79.500000 53.500000 0.000000
      vertex 2.500000 53.500000 0.000000
      vertex 2.500000 53.500000 32.000000
    endloop
  endfacet
  facet normal 0.000000 1.000000 -0.000000
    outer loop
      vertex 79.500000 53.500000 0.000000
      vertex 2.500000 53.500000 32.000000
      vertex 79.500000 53.500000 32.000000
    endloop
  endfacet
  facet normal -1.000000 0.000000 0.000000
    outer loop
      vertex 2.500000 2.500000 0.000000
      vertex 2.500000 2.500000 32.000000
      vertex 2.500000 53.500000 32.000000
    endloop
  endfacet
  facet normal -1.000000 0.000000 0.000000
    outer loop
      vertex 2.500000 2.500000 0.000000
      vertex 2.500000 53.500000 32.000000
      vertex 2.500000 53.500000 0.000000
    endloop
  endfacet
  facet normal 1.000000 0.000000 0.000000
    outer loop
      vertex 79.500000 2.500000 32.000000
      vertex 79.500000 2.500000 0.000000
      vertex 79.500000 53.500000 0.000000
    endloop
  endfacet
  facet normal 1.000000 -0.000000 0.000000
    outer loop
      vertex 79.500000 2.500000 32.000000
      vertex 79.500000 53.500000 0.000000
      vertex 79.500000 53.500000 32.000000
    endloop
  endfacet
  facet normal 0.000000 0.000000 1.000000
    outer loop
      vertex -4.000000 -4.000000 0.000000
      vertex 0.000000 0.000000 0.000000
      vertex 0.000000 56.000000 0.000000
    endloop
  endfacet
  facet normal 0.000000 0.000000 1.000000
    outer loop
      vertex -4.000000 -4.000000 0.000000
      vertex 0.000000 56.000000 0.000000
      vertex -4.000000 60.000000 0.000000
    endloop
  endfacet
  facet normal -0.000000 0.000000 1.000000
    outer loop
      vertex 82.000000 0.000000 0.000000
      vertex 86.000000 -4.000000 0.000000
      vertex 86.000000 60.000000 0.000000
    endloop
  endfacet
  facet normal 0.000000 0.000000 1.000000
    outer loop
      vertex 82.000000 0.000000 0.000000
      vertex 86.000000 60.000000 0.000000
      vertex 82.000000 56.000000 0.000000
    endloop
  endfacet
  facet normal 0.000000 0.000000 1.000000
    outer loop
      vertex -4.000000 -4.000000 0.000000
      vertex 86.000000 -4.000000 0.000000
      vertex 82.000000 0.000000 0.000000
    endloop
  endfacet
  facet normal 0.000000 0.000000 1.000000
    outer loop
      vertex -4.000000 -4.000000 0.000000
      vertex 82.000000 0.000000 0.000000
      vertex 0.000000 0.000000 0.000000
    endloop
  endfacet
  facet normal 0.000000 0.000000 1.000000
    outer loop
      vertex 0.000000 56.000000 0.000000
      vertex 82.000000 56.000000 0.000000
      vertex 86.000000 60.000000 0.000000
    endloop
  endfacet
  facet normal 0.000000 -0.000000 1.000000
    outer loop
      vertex 0.000000 56.000000 0.000000
      vertex 86.000000 60.000000 0.000000
      vertex -4.000000 60.000000 0.000000
    endloop
  endfacet
  facet normal 0.000000 0.000000 -1.000000
    outer loop
      vertex -4.000000 60.000000 -4.000000
      vertex 86.000000 60.000000 -4.000000
      vertex 86.000000 -4.000000 -4.000000
    endloop
  endfacet
  facet normal 0.000000 0.000000 -1.000000
    outer loop
      vertex -4.000000 60.000000 -4.000000
      vertex 86.000000 -4.000000 -4.000000
      vertex -4.000000 -4.000000 -4.000000
    endloop
  endfacet
  facet normal 0.000000 -1.000000 0.000000
    outer loop
      vertex -4.000000 -4.000000 -4.000000
      vertex 86.000000 -4.000000 -4.000000
      vertex 86.000000 -4.000000 0.000000
    endloop
  endfacet
  facet normal 0.000000 -1.000000 0.000000
    outer loop
      vertex -4.000000 -4.000000 -4.000000
      vertex 86.000000 -4.000000 0.000000
      vertex -4.000000 -4.000000 0.000000
    endloop
  endfacet
  facet normal 0.000000 1.000000 0.000000
    outer loop
      vertex 86.000000 60.000000 -4.000000
      vertex -4.000000 60.000000 -4.000000
      vertex -4.000000 60.000000 0.000000
    endloop
  endfacet
  facet normal 0.000000 1.000000 -0.000000
    outer loop
      vertex 86.000000 60.000000 -4.000000
      vertex -4.000000 60.000000 0.000000
      vertex 86.000000 60.000000 0.000000
    endloop
  endfacet
  facet normal -1.000000 0.000000 0.000000
    outer loop
      vertex -4.000000 60.000000 -4.000000
      vertex -4.000000 -4.000000 -4.000000
      vertex -4.000000 -4.000000 0.000000
    endloop
  endfacet
  facet normal -1.000000 0.000000 0.000000
    outer loop
      vertex -4.000000 60.000000 -4.000000
      vertex -4.000000 -4.000000 0.000000
      vertex -4.000000 60.000000 0.000000
    endloop
  endfacet
  facet normal 1.000000 0.000000 0.000000
    outer loop
      vertex 86.000000 -4.000000 -4.000000
      vertex 86.000000 60.000000 -4.000000
      vertex 86.000000 60.000000 0.000000
    endloop
  endfacet
  facet normal 1.000000 0.000000 0.000000
    outer loop
      vertex 86.000000 -4.000000 -4.000000
      vertex 86.000000 60.000000 0.000000
      vertex 86.000000 -4.000000 0.000000
    endloop
  endfacet
  facet normal 0.000000 0.000000 1.000000
    outer loop
      vertex 0.000000 0.000000 46.000000
      vertex 82.000000 0.000000 46.000000
      vertex 82.000000 56.000000 46.000000
    endloop
  endfacet
  facet normal 0.000000 0.000000 1.000000
    outer loop
      vertex 0.000000 0.000000 46.000000
      vertex 82.000000 56.000000 46.000000
      vertex 0.000000 56.000000 46.000000
    endloop
  endfacet
  facet normal 0.000000 -1.000000 0.000000
    outer loop
      vertex 0.000000 0.000000 42.000000
      vertex 82.000000 0.000000 42.000000
      vertex 82.000000 0.000000 46.000000
    endloop
  endfacet
  facet normal 0.000000 -1.000000 0.000000
    outer loop
      vertex 0.000000 0.000000 42.000000
      vertex 82.000000 0.000000 46.000000
      vertex 0.000000 0.000000 46.000000
    endloop
  endfacet
  facet normal 0.000000 1.000000 0.000000
    outer loop
      vertex 82.000000 56.000000 42.000000
      vertex 0.000000 56.000000 42.000000
      vertex 0.000000 56.000000 46.000000
    endloop
  endfacet
  facet normal 0.000000 1.000000 -0.000000
    outer loop
      vertex 82.000000 56.000000 42.000000
      vertex 0.000000 56.000000 46.000000
      vertex 82.000000 56.000000 46.000000
    endloop
  endfacet
  facet normal -1.000000 0.000000 0.000000
    outer loop
      vertex 0.000000 56.000000 42.000000
      vertex 0.000000 0.000000 42.000000
      vertex 0.000000 0.000000 46.000000
    endloop
  endfacet
  facet normal -1.000000 0.000000 0.000000
    outer loop
      vertex 0.000000 56.000000 42.000000
      vertex 0.000000 0.000000 46.000000
      vertex 0.000000 56.000000 46.000000
    endloop
  endfacet
  facet normal 1.000000 0.000000 0.000000
    outer loop
      vertex 82.000000 0.000000 42.000000
      vertex 82.000000 56.000000 42.000000
      vertex 82.000000 56.000000 46.000000
    endloop
  endfacet
  facet normal 1.000000 0.000000 0.000000
    outer loop
      vertex 82.000000 0.000000 42.000000
      vertex 82.000000 56.000000 46.000000
      vertex 82.000000 0.000000 46.000000
    endloop
  endfacet
  facet normal 0.000000 0.000000 -1.000000
    outer loop
      vertex 82.000000 0.000000 42.000000
      vertex 0.000000 0.000000 42.000000
      vertex 0.000000 56.000000 42.000000
    endloop
  endfacet
  facet normal 0.000000 0.000000 -1.000000
    outer loop
      vertex 82.000000 0.000000 42.000000
      vertex 0.000000 56.000000 42.000000
      vertex 82.000000 56.000000 42.000000
    endloop
  endfacet
  facet normal 0.000000 -1.000000 0.000000
    outer loop
      vertex 1.500000 1.500000 42.000000
      vertex 80.500000 1.500000 42.000000
      vertex 80.500000 1.500000 45.000000
    endloop
  endfacet
  facet normal 0.000000 -1.000000 0.000000
    outer loop
      vertex 1.500000 1.500000 42.000000
      vertex 80.500000 1.500000 45.000000
      vertex 1.500000 1.500000 45.000000
    endloop
  endfacet
  facet normal 0.000000 1.000000 0.000000
    outer loop
      vertex 80.500000 54.500000 42.000000
      vertex 1.500000 54.500000 42.000000
      vertex 1.500000 54.500000 45.000000
    endloop
  endfacet
  facet normal 0.000000 1.000000 -0.000000
    outer loop
      vertex 80.500000 54.500000 42.000000
      vertex 1.500000 54.500000 45.000000
      vertex 80.500000 54.500000 45.000000
    endloop
  endfacet
  facet normal -1.000000 0.000000 0.000000
    outer loop
      vertex 1.500000 1.500000 42.000000
      vertex 1.500000 1.500000 45.000000
      vertex 1.500000 54.500000 45.000000
    endloop
  endfacet
  facet normal -1.000000 0.000000 0.000000
    outer loop
      vertex 1.500000 1.500000 42.000000
      vertex 1.500000 54.500000 45.000000
      vertex 1.500000 54.500000 42.000000
    endloop
  endfacet
  facet normal 1.000000 0.000000 0.000000
    outer loop
      vertex 80.500000 1.500000 45.000000
      vertex 80.500000 1.500000 42.000000
      vertex 80.500000 54.500000 42.000000
    endloop
  endfacet
  facet normal 1.000000 -0.000000 0.000000
    outer loop
      vertex 80.500000 1.500000 45.000000
      vertex 80.500000 54.500000 42.000000
      vertex 80.500000 54.500000 45.000000
    endloop
  endfacet
endsolid BikeWheelEnclosure